<svg xmlns="http://www.w3.org/2000/svg" width="16" height="16" fill="currentColor" class="bi bi-globe" viewBox="0 0 124 124.5">
  <path d="M62,124.2C27.8,124.2,0,96.5,0,62.3S27.8.4,62,.4s62,27.8,62,61.9-27.8,62-62,62ZM64,96.8v22.9c8.9-1.1,16.7-9.9,21.7-22.9h-21.7ZM38.4,96.8c4.9,12.7,12.5,21.4,21.1,22.8v-22.8h-21.1ZM90.5,96.8c-3.2,8.8-7.6,16-12.9,20.8,12.3-3.5,22.9-10.9,30.4-20.8h-17.5ZM16.1,96.8c7.5,9.9,18.1,17.4,30.4,20.8-5.2-4.8-9.7-12-12.9-20.8h-17.5ZM91.9,92.2h19.1c5.4-8.7,8.4-19,8.4-30s0-.7,0-1.1c-3.6,0-5.6.3-6.8.4-1.9.3-3.2.7-6.7,2.1l-.9.3c-1.6.6-3.4,1.3-5.2,2-1.3.5-2.6,1-3.9,1.5-.4,8.9-1.8,17.3-4,24.7ZM64,92.2h23.3c2.2-6.8,3.6-14.6,4.1-22.9-.2,0-.4.1-.5.2-3.2,1.2-5.1,1.9-7.8,2.3-1.5.2-4.2.6-7.7,0-4.5-.7-7.6-2.7-8.7-3.5-1-.7-1.8-1.4-2.6-2.1,0,.2,0,.3,0,.5v25.5ZM36.8,92.2h22.7v-25.5c0-1.2-1-2.2-2.2-2.2h-24.8c.2,10.1,1.8,19.6,4.3,27.7ZM13,92.2h19.1c-2.4-8.2-3.9-17.6-4.1-27.7H4.6c.4,10.1,3.4,19.6,8.4,27.7ZM57.5,32.9c0,1.3.1,2.8.2,4.4.4,7.6,1.1,10.7,1.5,12.4,1,3.7,2,5.7,2.7,6.9,1.2,2,2.4,3.5,3,4.1v.2c1.5,1.5,2.5,2.7,4.1,3.8.9.6,3.3,2.2,6.9,2.7,2.8.5,5,.2,6.3,0,2.3-.4,3.9-.9,6.9-2.1.8-.3,1.6-.6,2.3-.9,0-.7,0-1.4,0-2.1,0-10.8-1.5-20.8-4.2-29.4h-29.8ZM92.1,32.9c2.5,8.7,4,18.7,4,29.4s0,.3,0,.4c.7-.3,1.5-.6,2.2-.9,1.8-.7,3.6-1.4,5.3-2l.9-.3c3.8-1.4,5.3-2,7.6-2.3,1.3-.2,3.5-.5,7.2-.5-.8-8.6-3.6-16.7-7.9-23.8h-19.2ZM32.5,60h24.8c.6,0,1.1,0,1.6.2-.3-.4-.6-.9-.9-1.4-1.3-2.2-2.3-4.8-3.1-8-.5-1.8-1.3-5.3-1.7-13.3,0-1.7-.2-3.2-.2-4.7h-16.4c-2.5,8-4,17.3-4.2,27.2ZM4.6,60h23.4c.2-9.9,1.6-19.1,3.9-27.2H12.7c-4.8,8-7.7,17.3-8.1,27.2ZM90.6,28.4h17.7c-7.5-10.2-18.2-17.8-30.7-21.3,5.3,4.9,9.8,12.3,13,21.3ZM57.5,28.4h28.3c-5.3-14-13.7-23.2-23.3-23.5-.8,1.6-1.6,3.4-2.7,6.8-1.3,4.1-1.7,7.5-2,10.8v1c-.2,1.7-.3,3.3-.4,4.8ZM38.2,28.4h14.8c0-1.7.1-3.4.3-5.2v-1.1c.5-3.5.9-7.1,2.3-11.7.6-2,1.2-3.5,1.7-4.7-7.8,2.5-14.6,10.9-19.1,22.8ZM15.7,28.4h17.7c3.2-9.1,7.7-16.5,13-21.3-12.5,3.5-23.2,11.2-30.7,21.3Z"/>
</svg>