<svg xmlns="http://www.w3.org/2000/svg" viewBox="0 0 16 11.13">
  <g id="icon">
    <path fill="#3a1e3e" fill-opacity=".9" d="M12.7733473,11.0816139H1.8362145c-.9809434,0-1.7787185-.7983268-1.7787185-1.7792703V1.8415463C.0574959.8606029.8552711.0628277,1.8362145.0628277h10.9371329c.9809434,0,1.7787185.7977751,1.7787185,1.7787185v7.4607974c0,.9809434-.7977751,1.7792703-1.7787185,1.7792703ZM1.8362145.707227c-.6264672,0-1.1343193.507852-1.1343193,1.1343193v7.4607974c0,.507828,1.4070182-1.0501163,2.2715026-1.6548697.2502797-.1750841.5811271-.1676423.8343473.0031614l1.5611227,1.0530182c.4824635.3254343,1.1272811.2665829,1.5428603-.1408142l2.7650514-2.7106117c.2069196-.2028457.5194165-.2528151.7792725-.1246085l3.2654921,1.6111126c.2209796.0031165.1861224-.8004637.1861224-1.4261048V1.8415463c0-.6264672-.507852-1.1343193-1.1343193-1.1343193H1.8362145Z"/>
    <path fill="#ffe880" fill-opacity=".8" d="M4.6202025,3.8831006c0,.5757778-.4667599,1.0425377-1.0425377,1.0425377s-1.0425377-.4667599-1.0425377-1.0425377.4667601-1.0425377,1.0425377-1.0425377,1.0425377.4667599,1.0425377,1.0425377"/>
    <path fill="#3a1e3e" d="M15.3652112,2.3990432v.6076113c.304935.0937395.5646944.3371226.5646944.6911859v1.3552669c0,.4607906-.4410264.7341028-.8470416.7341028h-1.6940832c-.4060152,0-.8470416-.2733122-.8470416-.7341028v-1.3552669c0-.3540633.2597594-.5974465.5646944-.6911859v-.6076113c0-.6237442.5056446-1.1293888,1.1293888-1.1293888s1.1293888.5056446,1.1293888,1.1293888M13.671128,2.3990432v.5646944h1.1293888v-.5646944c0-.3118721-.252822-.5646944-.5646944-.5646944-.3118721,0-.5646944.2528223-.5646944.5646944"/>
  </g>
  <g id="label" fill="#ffe880">
    <path d="M1.887207,10.4979536l.2504883-.3637695h-.2431641v-.0571289h.3232422v.0400391l-.2504883.3642578h.2568359v.0571289h-.3369141v-.0405273Z"/>
    <path d="M2.4003906,10.5448286c-.0175781,0-.0336914-.0029297-.0483398-.0092773-.0151367-.0063477-.0273438-.0151367-.0380859-.0263672-.0102539-.0112305-.0185547-.0249023-.0244141-.0410156-.0058594-.0166016-.0083008-.034668-.0083008-.0551758v-.199707h.0556641v.1914062c0,.0273438.0068359.0488281.0200195.0649414s.0307617.0239258.0532227.0239258c.0126953,0,.0244141-.0024414.0356445-.0078125.0112305-.0058594.0205078-.0136719.0288086-.0234375.0078125-.0102539.0141602-.0229492.019043-.0375977s.0068359-.03125.0068359-.0498047v-.1616211h.0561523v.3251953h-.0561523v-.050293c-.0107422.0195312-.0249023.0336914-.0424805.0429688s-.0366211.0136719-.0576172.0136719Z"/>
    <path d="M2.800293,10.6810591c-.0351562,0-.065918-.0068359-.0922852-.0195312-.0263672-.0131836-.0463867-.0288086-.0600586-.046875l.0385742-.0390625c.0131836.0166016.0292969.0297852.0478516.0395508.019043.0097656.0410156.0151367.065918.0151367.0141602,0,.0273438-.0024414.0405273-.0068359.0131836-.0039062.0244141-.0107422.034668-.0205078.0102539-.0092773.0185547-.0209961.0244141-.034668.0058594-.0141602.0092773-.03125.0092773-.0507812v-.0366211c-.0112305.0161133-.0268555.0297852-.046875.0405273-.0200195.0112305-.0419922.0166016-.0664062.0166016-.0224609,0-.043457-.0043945-.0629883-.0126953-.0195312-.0087891-.0366211-.0205078-.0507812-.0351562-.0141602-.0151367-.0253906-.0327148-.0332031-.0527344-.0083008-.0200195-.012207-.0419922-.012207-.0654297,0-.0229492.0039062-.0444336.012207-.0644531.0078125-.0205078.019043-.0375977.0332031-.0527344s.03125-.0268555.0507812-.0351562.0405273-.0126953.0629883-.0126953c.0244141,0,.0463867.0053711.0664062.0161133.0200195.0102539.0356445.0239258.046875.0405273v-.050293h.0556641v.3061523c0,.0273438-.0039062.0512695-.0126953.0712891-.0083008.0200195-.0200195.0371094-.034668.050293s-.0322266.0229492-.0522461.0297852c-.0195312.0068359-.0415039.0102539-.0649414.0102539ZM2.8037109,10.4857466c.0161133,0,.0307617-.0029297.0444336-.0083008.0136719-.0058594.0253906-.0136719.034668-.0239258.0097656-.0102539.0170898-.0219727.0224609-.0361328.0053711-.0136719.0083008-.0288086.0083008-.0454102,0-.0161133-.0029297-.0307617-.0083008-.0449219s-.0126953-.0263672-.0224609-.0361328c-.0092773-.0102539-.0209961-.0180664-.034668-.0239258s-.0283203-.0087891-.0444336-.0087891c-.0166016,0-.03125.0029297-.0449219.0087891-.0131836.0058594-.0249023.0136719-.0341797.0239258-.0097656.0097656-.0170898.0219727-.0224609.0361328s-.0083008.0288086-.0083008.0449219c0,.0166016.0029297.0317383.0083008.0454102.0053711.0141602.0126953.0258789.0224609.0361328.0092773.0102539.0209961.0180664.0341797.0239258.0136719.0053711.0283203.0083008.0449219.0083008Z"/>
    <path d="M3.0703125,10.2132857h.0556641v.0634766c.003418-.0107422.0078125-.0200195.0146484-.0283203.0063477-.0083008.0136719-.0151367.0219727-.0205078.0083008-.0058594.0170898-.0102539.0263672-.0131836s.0185547-.0043945.0283203-.0043945c.0083008,0,.0170898.0009766.0253906.0024414v.0581055c-.0053711-.0024414-.0102539-.0039062-.0151367-.0043945s-.0097656-.0009766-.015625-.0009766c-.0102539,0-.0205078.0024414-.0307617.0068359s-.0195312.0112305-.0273438.0205078c-.0083008.0087891-.0146484.0205078-.0200195.034668-.0048828.0141602-.0078125.0307617-.0078125.0498047v.1611328h-.0556641v-.3251953Z"/>
    <path d="M3.3364258,10.1263716c-.0112305,0-.0205078-.0039062-.0283203-.0112305-.0078125-.0078125-.0117188-.0170898-.0117188-.0283203,0-.0107422.0039062-.0200195.0117188-.027832s.0170898-.0117188.0283203-.0117188.0209961.0039062.0283203.0117188.0107422.0170898.0107422.027832c0,.0112305-.003418.0205078-.0107422.0283203-.0073242.0073242-.0170898.0112305-.0283203.0112305ZM3.3081055,10.2132857h.0556641v.3251953h-.0556641v-.3251953Z"/>
    <path d="M3.4970703,10.2650435h-.0688477v-.0517578h.0688477v-.0668945c0-.0166016.0024414-.03125.0073242-.0439453s.0117188-.0229492.0209961-.0307617c.0087891-.0083008.019043-.0141602.03125-.0185547.012207-.0039062.0253906-.0058594.0395508-.0058594.0102539,0,.019043.0004883.0273438.0019531s.0161133.0039062.0234375.0063477v.0493164c-.0048828-.0019531-.0107422-.0039062-.0185547-.0048828s-.0151367-.0014648-.0214844-.0014648c-.0185547,0-.0317383.0039062-.0405273.0117188-.0092773.0083008-.0136719.0224609-.0136719.043457v.0595703h.0800781v.0517578h-.0800781v.2734375h-.0556641v-.2734375ZM3.7246094,10.2650435h-.0561523v-.0517578h.0561523v-.0668945c0-.0166016.0024414-.03125.0073242-.0439453s.0117188-.0229492.0209961-.0307617c.0087891-.0083008.019043-.0141602.03125-.0185547.012207-.0039062.0253906-.0058594.0395508-.0058594.0102539,0,.019043.0004883.0273438.0019531s.0161133.0039062.0234375.0063477v.0493164c-.0048828-.0019531-.0117188-.0039062-.019043-.0048828-.0078125-.0009766-.0151367-.0014648-.0219727-.0014648-.0175781,0-.0307617.0039062-.0400391.0117188-.0087891.0083008-.0131836.0224609-.0131836.043457v.0595703h.0942383v.0517578h-.0942383v.2734375h-.0556641v-.2734375Z"/>
    <path d="M4.21875,10.5448286c-.0253906,0-.0483398-.0043945-.0688477-.0126953-.0209961-.0087891-.0385742-.0205078-.0537109-.0361328-.0146484-.0151367-.0258789-.0327148-.0336914-.0532227-.0083008-.0205078-.012207-.0429688-.012207-.0668945s.0039062-.0458984.012207-.0664062.0200195-.0385742.034668-.0537109c.0151367-.0151367.0332031-.0273438.0537109-.0356445.0209961-.0087891.043457-.0131836.0683594-.0131836.0209961,0,.0410156.003418.0595703.0107422.019043.0073242.0351562.0175781.0493164.0317383s.0253906.03125.0336914.0512695c.0078125.0205078.012207.043457.012207.0693359v.0083008c0,.0024414-.0004883.0053711-.0004883.0087891h-.2666016c.0004883.0151367.003418.0292969.0092773.0419922.0058594.0131836.0136719.0244141.0234375.0341797.0097656.0092773.0214844.0166016.0351562.0224609.0136719.0053711.0283203.0078125.0444336.0078125.0249023,0,.0458984-.0048828.0620117-.0151367s.0292969-.0239258.0395508-.0415039l.0439453.0307617c-.0146484.0239258-.0341797.0424805-.0585938.0566406-.0244141.0136719-.0537109.0205078-.0874023.0205078ZM4.3168945,10.3417036c-.0024414-.0136719-.0063477-.0253906-.012207-.0361328-.0058594-.0102539-.0131836-.019043-.0219727-.0263672s-.019043-.0131836-.0302734-.0170898-.0229492-.0058594-.0351562-.0058594-.0239258.0019531-.0356445.0058594-.0224609.0097656-.0317383.0166016c-.0097656.0073242-.0180664.0161133-.0249023.0268555s-.0117188.0224609-.0141602.0361328h.2060547Z"/>
    <path d="M4.480957,10.1263716c-.0112305,0-.0205078-.0039062-.0283203-.0112305-.0078125-.0078125-.0117188-.0170898-.0117188-.0283203,0-.0107422.0039062-.0200195.0117188-.027832s.0170898-.0117188.0283203-.0117188.0209961.0039062.0283203.0117188.0107422.0170898.0107422.027832c0,.0112305-.003418.0205078-.0107422.0283203-.0073242.0073242-.0170898.0112305-.0283203.0112305ZM4.4526367,10.2132857h.0556641v.3251953h-.0556641v-.3251953Z"/>
    <path d="M4.6147461,10.2132857h.0556641v.050293c.0112305-.0195312.0263672-.0336914.0444336-.0429688s.0375977-.0136719.059082-.0136719c.0180664,0,.034668.0029297.0498047.0092773.015625.0058594.0283203.0146484.0390625.0263672.0102539.0112305.0185547.0253906.0249023.0415039.0058594.0161133.0092773.0341797.0092773.0541992v.2001953h-.0556641v-.1918945c0-.0273438-.0068359-.0488281-.0209961-.0644531-.0141602-.0161133-.0327148-.0239258-.0556641-.0239258-.0126953,0-.0249023.0029297-.0366211.0078125-.0112305.0053711-.0214844.0131836-.0297852.0229492-.0083008.0102539-.0151367.0229492-.0200195.0375977-.0053711.0146484-.0078125.0317383-.0078125.0507812v.1611328h-.0556641v-.3251953Z"/>
    <path d="M5.1357422,10.6810591c-.0351562,0-.065918-.0068359-.0922852-.0195312-.0263672-.0131836-.0463867-.0288086-.0600586-.046875l.0385742-.0390625c.0131836.0166016.0292969.0297852.0478516.0395508.019043.0097656.0410156.0151367.065918.0151367.0141602,0,.0273438-.0024414.0405273-.0068359.0131836-.0039062.0244141-.0107422.034668-.0205078.0102539-.0092773.0185547-.0209961.0244141-.034668.0058594-.0141602.0092773-.03125.0092773-.0507812v-.0366211c-.0112305.0161133-.0268555.0297852-.046875.0405273-.0200195.0112305-.0419922.0166016-.0664062.0166016-.0224609,0-.043457-.0043945-.0629883-.0126953-.0195312-.0087891-.0366211-.0205078-.0507812-.0351562-.0141602-.0151367-.0253906-.0327148-.0332031-.0527344-.0083008-.0200195-.012207-.0419922-.012207-.0654297,0-.0229492.0039062-.0444336.012207-.0644531.0078125-.0205078.019043-.0375977.0332031-.0527344s.03125-.0268555.0507812-.0351562.0405273-.0126953.0629883-.0126953c.0244141,0,.0463867.0053711.0664062.0161133.0200195.0102539.0356445.0239258.046875.0405273v-.050293h.0556641v.3061523c0,.0273438-.0039062.0512695-.0126953.0712891-.0083008.0200195-.0200195.0371094-.034668.050293s-.0322266.0229492-.0522461.0297852c-.0195312.0068359-.0415039.0102539-.0649414.0102539ZM5.1391602,10.4857466c.0161133,0,.0307617-.0029297.0444336-.0083008.0136719-.0058594.0253906-.0136719.034668-.0239258.0097656-.0102539.0170898-.0219727.0224609-.0361328.0053711-.0136719.0083008-.0288086.0083008-.0454102,0-.0161133-.0029297-.0307617-.0083008-.0449219s-.0126953-.0263672-.0224609-.0361328c-.0092773-.0102539-.0209961-.0180664-.034668-.0239258s-.0283203-.0087891-.0444336-.0087891c-.0166016,0-.03125.0029297-.0449219.0087891-.0131836.0058594-.0249023.0136719-.0341797.0239258-.0097656.0097656-.0170898.0219727-.0224609.0361328s-.0083008.0288086-.0083008.0449219c0,.0166016.0029297.0317383.0083008.0454102.0053711.0141602.0126953.0258789.0224609.0361328.0092773.0102539.0209961.0180664.0341797.0239258.0136719.0053711.0283203.0083008.0449219.0083008Z"/>
    <path d="M5.5488281,10.5448286c-.0253906,0-.0483398-.0043945-.0688477-.0126953-.0209961-.0087891-.0385742-.0205078-.0537109-.0361328-.0146484-.0151367-.0258789-.0327148-.0336914-.0532227-.0083008-.0205078-.012207-.0429688-.012207-.0668945s.0039062-.0458984.012207-.0664062.0200195-.0385742.034668-.0537109c.0151367-.0151367.0332031-.0273438.0537109-.0356445.0209961-.0087891.043457-.0131836.0683594-.0131836.0209961,0,.0410156.003418.0595703.0107422.019043.0073242.0351562.0175781.0493164.0317383s.0253906.03125.0336914.0512695c.0078125.0205078.012207.043457.012207.0693359v.0083008c0,.0024414-.0004883.0053711-.0004883.0087891h-.2666016c.0004883.0151367.003418.0292969.0092773.0419922.0058594.0131836.0136719.0244141.0234375.0341797.0097656.0092773.0214844.0166016.0351562.0224609.0136719.0053711.0283203.0078125.0444336.0078125.0249023,0,.0458984-.0048828.0620117-.0151367s.0292969-.0239258.0395508-.0415039l.0439453.0307617c-.0146484.0239258-.0341797.0424805-.0585938.0566406-.0244141.0136719-.0537109.0205078-.0874023.0205078ZM5.6469727,10.3417036c-.0024414-.0136719-.0063477-.0253906-.012207-.0361328-.0058594-.0102539-.0131836-.019043-.0219727-.0263672s-.019043-.0131836-.0302734-.0170898-.0229492-.0058594-.0351562-.0058594-.0239258.0019531-.0356445.0058594-.0224609.0097656-.0317383.0166016c-.0097656.0073242-.0180664.0161133-.0249023.0268555s-.0117188.0224609-.0141602.0361328h.2060547Z"/>
    <path d="M5.8808594,10.5448286c-.0292969,0-.0551758-.0058594-.078125-.0185547-.0229492-.012207-.0395508-.03125-.0493164-.0566406l.0454102-.0253906c.0063477.0166016.0166016.0292969.0322266.0380859.0151367.0087891.0322266.0131836.050293.0131836.015625,0,.0288086-.0039062.0400391-.0112305.0112305-.0078125.0166016-.0185547.0166016-.0322266,0-.0117188-.0039062-.0214844-.012207-.0292969s-.0229492-.0151367-.0444336-.0214844l-.0322266-.0102539c-.0268555-.0078125-.0473633-.0200195-.0610352-.0361328s-.0205078-.0356445-.0205078-.059082c0-.0136719.0029297-.0258789.0087891-.0371094s.0141602-.0205078.0239258-.027832c.0102539-.0078125.0219727-.0136719.0356445-.0175781.0131836-.0043945.027832-.0063477.043457-.0063477.0244141,0,.0454102.0048828.0639648.0146484.0180664.0097656.0327148.0239258.043457.0419922l-.0415039.0283203c-.0073242-.0102539-.0166016-.019043-.027832-.0258789-.0112305-.0073242-.0244141-.0107422-.0400391-.0107422-.0136719,0-.0263672.003418-.0371094.0102539-.0112305.0068359-.0166016.0166016-.0166016.0283203,0,.0102539.0029297.019043.0092773.0268555s.0185547.0146484.0366211.0200195l.0356445.0112305c.0283203.0087891.050293.0205078.0654297.0356445.015625.0151367.0229492.0351562.0229492.0600586,0,.015625-.0024414.0292969-.0083008.0415039-.0053711.012207-.0136719.0224609-.0234375.0302734-.0102539.0083008-.0224609.0146484-.0361328.019043-.0141602.0043945-.0288086.0063477-.0449219.0063477Z"/>
    <path d="M6.2207031,10.5448286c-.0249023,0-.0473633-.0043945-.0683594-.0126953-.0209961-.0087891-.0390625-.0209961-.0541992-.0361328-.0151367-.015625-.0268555-.0336914-.0351562-.0541992s-.0126953-.0424805-.0126953-.065918.0043945-.0454102.0126953-.065918.0200195-.0385742.0351562-.0537109c.0151367-.015625.0332031-.027832.0541992-.0361328.0209961-.0087891.043457-.0131836.0683594-.0131836.0336914,0,.0634766.0083008.0893555.0239258.0263672.0161133.0463867.0371094.0605469.0629883l-.0488281.0273438c-.0087891-.0185547-.0224609-.0336914-.0400391-.0449219-.0170898-.0117188-.0375977-.0170898-.0610352-.0170898-.0170898,0-.0322266.0029297-.0463867.0087891-.0136719.0063477-.0258789.0146484-.0361328.0249023-.0102539.0107422-.0180664.0234375-.0234375.0375977s-.0078125.0292969-.0078125.0454102c0,.0166016.0024414.0317383.0078125.0458984s.0131836.0263672.0234375.0371094.0224609.019043.0361328.0249023c.0141602.0063477.0292969.0092773.0463867.0092773.0234375,0,.0439453-.0058594.0610352-.0170898.0175781-.0117188.03125-.0268555.0400391-.0454102l.0488281.0273438c-.0141602.0258789-.0341797.046875-.0605469.0629883-.0258789.0161133-.0556641.0239258-.0893555.0239258Z"/>
    <path d="M6.4428711,10.538481v-.4873047h.0556641v.2124023c.0112305-.0195312.0263672-.0336914.0444336-.0429688s.0375977-.0136719.059082-.0136719c.0180664,0,.034668.0029297.0498047.0092773.015625.0058594.0283203.0146484.0390625.0263672.0102539.0112305.0185547.0253906.0249023.0415039.0058594.0161133.0092773.0341797.0092773.0541992v.2001953h-.0556641v-.1918945c0-.0273438-.0068359-.0488281-.0209961-.0644531-.0141602-.0161133-.0327148-.0239258-.0556641-.0239258-.0126953,0-.0249023.0029297-.0366211.0078125-.0112305.0053711-.0214844.0131836-.0297852.0229492-.0083008.0102539-.0151367.0229492-.0200195.0375977-.0053711.0146484-.0078125.0317383-.0078125.0507812v.1611328h-.0556641Z"/>
    <path d="M6.8256836,10.2132857h.0556641v.0634766c.003418-.0107422.0078125-.0200195.0146484-.0283203.0063477-.0083008.0136719-.0151367.0219727-.0205078.0083008-.0058594.0170898-.0102539.0263672-.0131836s.0185547-.0043945.0283203-.0043945c.0083008,0,.0170898.0009766.0253906.0024414v.0581055c-.0053711-.0024414-.0102539-.0039062-.0151367-.0043945s-.0097656-.0009766-.015625-.0009766c-.0102539,0-.0205078.0024414-.0307617.0068359s-.0195312.0112305-.0273438.0205078c-.0083008.0087891-.0146484.0205078-.0200195.034668-.0048828.0141602-.0078125.0307617-.0078125.0498047v.1611328h-.0556641v-.3251953Z"/>
    <path d="M7.1860352,10.5448286c-.0229492,0-.0439453-.0043945-.0634766-.0131836-.019043-.0087891-.0361328-.0209961-.050293-.0366211-.0141602-.0151367-.0253906-.0332031-.0332031-.0532227-.0083008-.0205078-.012207-.0424805-.012207-.065918s.0039062-.0454102.012207-.0654297c.0078125-.0205078.019043-.0385742.0332031-.0537109.0141602-.015625.03125-.0273438.050293-.0366211.0195312-.0087891.0405273-.0131836.0634766-.0131836.0249023,0,.0473633.0053711.0673828.0166016.0205078.0112305.0361328.0244141.046875.0400391v-.050293h.0561523v.3251953h-.0561523v-.050293c-.0107422.015625-.0263672.0292969-.046875.0400391-.0200195.0112305-.0424805.0166016-.0673828.0166016ZM7.1943359,10.4935591c.0166016,0,.0317383-.0029297.0449219-.0087891.0136719-.0063477.0249023-.0146484.034668-.0253906.0097656-.0102539.0175781-.0229492.0229492-.0371094.0053711-.0146484.0083008-.0297852.0083008-.0463867s-.0029297-.0317383-.0083008-.0458984c-.0053711-.0146484-.0131836-.0268555-.0229492-.0375977s-.0209961-.019043-.034668-.0249023c-.0131836-.0063477-.0283203-.0092773-.0449219-.0092773-.0161133,0-.03125.0029297-.0449219.0092773-.0136719.0058594-.0253906.0141602-.0351562.0249023s-.0175781.0229492-.0229492.0375977c-.0053711.0141602-.0078125.0292969-.0078125.0458984s.0024414.0317383.0078125.0463867c.0053711.0141602.0131836.0268555.0229492.0371094.0097656.0107422.0214844.019043.0351562.0253906.0136719.0058594.0288086.0087891.0449219.0087891ZM7.1347656,10.151274c-.0107422,0-.0200195-.0039062-.0273438-.0112305s-.0112305-.0161133-.0112305-.0268555c0-.0102539.0039062-.019043.0112305-.0268555.0073242-.0073242.0166016-.0112305.0273438-.0112305.0102539,0,.019043.0039062.0263672.0112305.0078125.0078125.0112305.0166016.0112305.0268555,0,.0107422-.003418.0195312-.0112305.0268555-.0073242.0073242-.0161133.0112305-.0263672.0112305ZM7.2807617,10.151274c-.0102539,0-.019043-.0039062-.0268555-.0112305-.0073242-.0073242-.0112305-.0161133-.0112305-.0268555,0-.0102539.0039062-.019043.0112305-.0268555.0078125-.0073242.0166016-.0112305.0268555-.0112305.0107422,0,.0195312.0039062.0268555.0112305.0073242.0078125.0112305.0166016.0112305.0268555,0,.0107422-.0039062.0195312-.0112305.0268555s-.0161133.0112305-.0268555.0112305Z"/>
    <path d="M7.4619141,10.2132857h.0556641v.050293c.0112305-.0195312.0263672-.0336914.0444336-.0429688s.0375977-.0136719.059082-.0136719c.0180664,0,.034668.0029297.0498047.0092773.015625.0058594.0283203.0146484.0390625.0263672.0102539.0112305.0185547.0253906.0249023.0415039.0058594.0161133.0092773.0341797.0092773.0541992v.2001953h-.0556641v-.1918945c0-.0273438-.0068359-.0488281-.0209961-.0644531-.0141602-.0161133-.0327148-.0239258-.0556641-.0239258-.0126953,0-.0249023.0029297-.0366211.0078125-.0112305.0053711-.0214844.0131836-.0297852.0229492-.0083008.0102539-.0151367.0229492-.0200195.0375977-.0053711.0146484-.0078125.0317383-.0078125.0507812v.1611328h-.0556641v-.3251953Z"/>
    <path d="M7.9003906,10.3758833v.1625977h-.0556641v-.4873047h.0556641v.2890625l.1420898-.1269531h.0737305l-.159668.144043.1953125.1811523h-.0751953l-.1762695-.1625977Z"/>
    <path d="M8.3208008,10.541899c-.0141602,0-.0273438-.0024414-.0395508-.0063477s-.0229492-.0102539-.0317383-.0180664c-.0087891-.0083008-.015625-.0185547-.0205078-.0307617-.0048828-.0126953-.0078125-.0273438-.0078125-.0444336v-.1772461h-.0688477v-.0517578h.0688477v-.090332h.0561523v.090332h.09375v.0517578h-.09375v.1699219c0,.0209961.0043945.0351562.0136719.043457.0087891.0078125.0224609.0117188.0400391.0117188.0073242,0,.0141602-.0004883.0214844-.0014648.0068359-.0009766.0131836-.0024414.0185547-.0048828v.050293c-.0073242.0019531-.0146484.0039062-.0229492.0053711s-.0175781.0024414-.0273438.0024414Z"/>
    <path d="M8.4448242,10.6312544h-.0371094l.043457-.0927734c-.0078125-.0039062-.0141602-.0097656-.019043-.0170898-.0048828-.0078125-.0073242-.0166016-.0073242-.0263672,0-.0131836.0043945-.0244141.0141602-.0341797.0092773-.0097656.0205078-.0146484.0336914-.0146484.0136719,0,.0249023.0048828.0341797.0146484s.0141602.0209961.0141602.0341797c0,.0053711-.0009766.0107422-.0024414.015625-.0019531.0048828-.0039062.0092773-.0068359.0136719l-.0668945.1069336Z"/>
    <path d="M8.8637695,10.5448286c-.0292969,0-.0551758-.0058594-.078125-.0185547-.0229492-.012207-.0395508-.03125-.0493164-.0566406l.0454102-.0253906c.0063477.0166016.0166016.0292969.0322266.0380859.0151367.0087891.0322266.0131836.050293.0131836.015625,0,.0288086-.0039062.0400391-.0112305.0112305-.0078125.0166016-.0185547.0166016-.0322266,0-.0117188-.0039062-.0214844-.012207-.0292969s-.0229492-.0151367-.0444336-.0214844l-.0322266-.0102539c-.0268555-.0078125-.0473633-.0200195-.0610352-.0361328s-.0205078-.0356445-.0205078-.059082c0-.0136719.0029297-.0258789.0087891-.0371094s.0141602-.0205078.0239258-.027832c.0102539-.0078125.0219727-.0136719.0356445-.0175781.0131836-.0043945.027832-.0063477.043457-.0063477.0244141,0,.0454102.0048828.0639648.0146484.0180664.0097656.0327148.0239258.043457.0419922l-.0415039.0283203c-.0073242-.0102539-.0166016-.019043-.027832-.0258789-.0112305-.0073242-.0244141-.0107422-.0400391-.0107422-.0136719,0-.0263672.003418-.0371094.0102539-.0112305.0068359-.0166016.0166016-.0166016.0283203,0,.0102539.0029297.019043.0092773.0268555s.0185547.0146484.0366211.0200195l.0356445.0112305c.0283203.0087891.050293.0205078.0654297.0356445.015625.0151367.0229492.0351562.0229492.0600586,0,.015625-.0024414.0292969-.0083008.0415039-.0053711.012207-.0136719.0224609-.0234375.0302734-.0102539.0083008-.0224609.0146484-.0361328.019043-.0141602.0043945-.0288086.0063477-.0449219.0063477Z"/>
    <path d="M9.0874023,10.5438521c-.0136719,0-.0249023-.0048828-.0341797-.0146484-.0092773-.0092773-.0141602-.0209961-.0141602-.0341797s.0048828-.0244141.0141602-.0341797.0205078-.0146484.0341797-.0146484c.0131836,0,.0249023.0048828.0341797.0146484s.0136719.0209961.0136719.0341797-.0043945.0249023-.0136719.0341797c-.0092773.0097656-.0209961.0146484-.0341797.0146484Z"/>
    <path d="M9.4418945,10.0770552l.1708984.2299805.1723633-.2299805h.0546875v.4614258h-.0595703v-.3588867l-.1665039.2236328-.1665039-.2236328v.3588867h-.0605469v-.4614258h.0551758Z"/>
    <path d="M10.0913086,10.5448286c-.0253906,0-.0483398-.0043945-.0688477-.0126953-.0209961-.0087891-.0385742-.0205078-.0537109-.0361328-.0146484-.0151367-.0258789-.0327148-.0336914-.0532227-.0083008-.0205078-.012207-.0429688-.012207-.0668945s.0039062-.0458984.012207-.0664062.0200195-.0385742.034668-.0537109c.0151367-.0151367.0332031-.0273438.0537109-.0356445.0209961-.0087891.043457-.0131836.0683594-.0131836.0209961,0,.0410156.003418.0595703.0107422.019043.0073242.0351562.0175781.0493164.0317383s.0253906.03125.0336914.0512695c.0078125.0205078.012207.043457.012207.0693359v.0083008c0,.0024414-.0004883.0053711-.0004883.0087891h-.2666016c.0004883.0151367.003418.0292969.0092773.0419922.0058594.0131836.0136719.0244141.0234375.0341797.0097656.0092773.0214844.0166016.0351562.0224609.0136719.0053711.0283203.0078125.0444336.0078125.0249023,0,.0458984-.0048828.0620117-.0151367s.0292969-.0239258.0395508-.0415039l.0439453.0307617c-.0146484.0239258-.0341797.0424805-.0585938.0566406-.0244141.0136719-.0537109.0205078-.0874023.0205078ZM10.1894531,10.3417036c-.0024414-.0136719-.0063477-.0253906-.012207-.0361328-.0058594-.0102539-.0131836-.019043-.0219727-.0263672s-.019043-.0131836-.0302734-.0170898-.0229492-.0058594-.0351562-.0058594-.0239258.0019531-.0356445.0058594-.0224609.0097656-.0317383.0166016c-.0097656.0073242-.0180664.0161133-.0249023.0268555s-.0117188.0224609-.0141602.0361328h.2060547Z"/>
    <path d="M10.4472656,10.541899c-.0141602,0-.0273438-.0024414-.0395508-.0063477s-.0229492-.0102539-.0317383-.0180664c-.0087891-.0083008-.015625-.0185547-.0205078-.0307617-.0048828-.0126953-.0078125-.0273438-.0078125-.0444336v-.1772461h-.0688477v-.0517578h.0688477v-.090332h.0561523v.090332h.09375v.0517578h-.09375v.1699219c0,.0209961.0043945.0351562.0136719.043457.0087891.0078125.0224609.0117188.0400391.0117188.0073242,0,.0141602-.0004883.0214844-.0014648.0068359-.0009766.0131836-.0024414.0185547-.0048828v.050293c-.0073242.0019531-.0146484.0039062-.0229492.0053711s-.0175781.0024414-.0273438.0024414Z"/>
    <path d="M10.6977539,10.5448286c-.0229492,0-.0439453-.0043945-.0634766-.0131836-.019043-.0087891-.0361328-.0209961-.050293-.0366211-.0141602-.0151367-.0253906-.0332031-.0332031-.0532227-.0083008-.0205078-.012207-.0424805-.012207-.065918s.0039062-.0454102.012207-.0654297c.0078125-.0205078.019043-.0385742.0332031-.0537109.0141602-.015625.03125-.0273438.050293-.0366211.0195312-.0087891.0405273-.0131836.0634766-.0131836.0249023,0,.0473633.0053711.0673828.0166016.0205078.0112305.0361328.0244141.046875.0400391v-.050293h.0561523v.3251953h-.0561523v-.050293c-.0107422.015625-.0263672.0292969-.046875.0400391-.0200195.0112305-.0424805.0166016-.0673828.0166016ZM10.7060547,10.4935591c.0166016,0,.0317383-.0029297.0449219-.0087891.0136719-.0063477.0249023-.0146484.034668-.0253906.0097656-.0102539.0175781-.0229492.0229492-.0371094.0053711-.0146484.0083008-.0297852.0083008-.0463867s-.0029297-.0317383-.0083008-.0458984c-.0053711-.0146484-.0131836-.0268555-.0229492-.0375977s-.0209961-.019043-.034668-.0249023c-.0131836-.0063477-.0283203-.0092773-.0449219-.0092773-.0161133,0-.03125.0029297-.0449219.0092773-.0136719.0058594-.0253906.0141602-.0351562.0249023s-.0175781.0229492-.0229492.0375977c-.0053711.0141602-.0078125.0292969-.0078125.0458984s.0024414.0317383.0078125.0463867c.0053711.0141602.0131836.0268555.0229492.0371094.0097656.0107422.0214844.019043.0351562.0253906.0136719.0058594.0288086.0087891.0449219.0087891Z"/>
    <path d="M11.1074219,10.5448286c-.0229492,0-.0439453-.0043945-.0634766-.0131836-.019043-.0087891-.0361328-.0209961-.050293-.0366211-.0141602-.0151367-.0253906-.0332031-.0332031-.0532227-.0083008-.0205078-.012207-.0424805-.012207-.065918s.0039062-.0454102.012207-.0654297c.0078125-.0205078.019043-.0385742.0332031-.0537109.0141602-.015625.03125-.0273438.050293-.0366211.0195312-.0087891.0405273-.0131836.0634766-.0131836.0249023,0,.0473633.0053711.0673828.0166016.0205078.0112305.0361328.0244141.046875.0400391v-.2124023h.0561523v.4873047h-.0561523v-.050293c-.0107422.015625-.0263672.0292969-.046875.0400391-.0200195.0112305-.0424805.0166016-.0673828.0166016ZM11.1157227,10.4935591c.0166016,0,.0317383-.0029297.0449219-.0087891.0136719-.0063477.0249023-.0146484.034668-.0253906.0097656-.0102539.0175781-.0229492.0229492-.0371094.0053711-.0146484.0083008-.0297852.0083008-.0463867s-.0029297-.0317383-.0083008-.0458984c-.0053711-.0146484-.0131836-.0268555-.0229492-.0375977s-.0209961-.019043-.034668-.0249023c-.0131836-.0063477-.0283203-.0092773-.0449219-.0092773-.0161133,0-.03125.0029297-.0449219.0092773-.0136719.0058594-.0253906.0141602-.0351562.0249023s-.0175781.0229492-.0229492.0375977c-.0053711.0141602-.0078125.0292969-.0078125.0458984s.0024414.0317383.0078125.0463867c.0053711.0141602.0131836.0268555.0229492.0371094.0097656.0107422.0214844.019043.0351562.0253906.0136719.0058594.0288086.0087891.0449219.0087891Z"/>
    <path d="M11.5170898,10.5448286c-.0229492,0-.0439453-.0043945-.0634766-.0131836-.019043-.0087891-.0361328-.0209961-.050293-.0366211-.0141602-.0151367-.0253906-.0332031-.0332031-.0532227-.0083008-.0205078-.012207-.0424805-.012207-.065918s.0039062-.0454102.012207-.0654297c.0078125-.0205078.019043-.0385742.0332031-.0537109.0141602-.015625.03125-.0273438.050293-.0366211.0195312-.0087891.0405273-.0131836.0634766-.0131836.0249023,0,.0473633.0053711.0673828.0166016.0205078.0112305.0361328.0244141.046875.0400391v-.050293h.0561523v.3251953h-.0561523v-.050293c-.0107422.015625-.0263672.0292969-.046875.0400391-.0200195.0112305-.0424805.0166016-.0673828.0166016ZM11.5253906,10.4935591c.0166016,0,.0317383-.0029297.0449219-.0087891.0136719-.0063477.0249023-.0146484.034668-.0253906.0097656-.0102539.0175781-.0229492.0229492-.0371094.0053711-.0146484.0083008-.0297852.0083008-.0463867s-.0029297-.0317383-.0083008-.0458984c-.0053711-.0146484-.0131836-.0268555-.0229492-.0375977s-.0209961-.019043-.034668-.0249023c-.0131836-.0063477-.0283203-.0092773-.0449219-.0092773-.0161133,0-.03125.0029297-.0449219.0092773-.0136719.0058594-.0253906.0141602-.0351562.0249023s-.0175781.0229492-.0229492.0375977c-.0053711.0141602-.0078125.0292969-.0078125.0458984s.0024414.0317383.0078125.0463867c.0053711.0141602.0131836.0268555.0229492.0371094.0097656.0107422.0214844.019043.0351562.0253906.0136719.0058594.0288086.0087891.0449219.0087891Z"/>
    <path d="M11.9189453,10.541899c-.0141602,0-.0273438-.0024414-.0395508-.0063477s-.0229492-.0102539-.0317383-.0180664c-.0087891-.0083008-.015625-.0185547-.0205078-.0307617-.0048828-.0126953-.0078125-.0273438-.0078125-.0444336v-.1772461h-.0688477v-.0517578h.0688477v-.090332h.0561523v.090332h.09375v.0517578h-.09375v.1699219c0,.0209961.0043945.0351562.0136719.043457.0087891.0078125.0224609.0117188.0400391.0117188.0073242,0,.0141602-.0004883.0214844-.0014648.0068359-.0009766.0131836-.0024414.0185547-.0048828v.050293c-.0073242.0019531-.0146484.0039062-.0229492.0053711s-.0175781.0024414-.0273438.0024414Z"/>
    <path d="M12.1791992,10.5448286c-.0253906,0-.0483398-.0043945-.0688477-.0126953-.0209961-.0087891-.0385742-.0205078-.0537109-.0361328-.0146484-.0151367-.0258789-.0327148-.0336914-.0532227-.0083008-.0205078-.012207-.0429688-.012207-.0668945s.0039062-.0458984.012207-.0664062.0200195-.0385742.034668-.0537109c.0151367-.0151367.0332031-.0273438.0537109-.0356445.0209961-.0087891.043457-.0131836.0683594-.0131836.0209961,0,.0410156.003418.0595703.0107422.019043.0073242.0351562.0175781.0493164.0317383s.0253906.03125.0336914.0512695c.0078125.0205078.012207.043457.012207.0693359v.0083008c0,.0024414-.0004883.0053711-.0004883.0087891h-.2666016c.0004883.0151367.003418.0292969.0092773.0419922.0058594.0131836.0136719.0244141.0234375.0341797.0097656.0092773.0214844.0166016.0351562.0224609.0136719.0053711.0283203.0078125.0444336.0078125.0249023,0,.0458984-.0048828.0620117-.0151367s.0292969-.0239258.0395508-.0415039l.0439453.0307617c-.0146484.0239258-.0341797.0424805-.0585938.0566406-.0244141.0136719-.0537109.0205078-.0874023.0205078ZM12.2773438,10.3417036c-.0024414-.0136719-.0063477-.0253906-.012207-.0361328-.0058594-.0102539-.0131836-.019043-.0219727-.0263672s-.019043-.0131836-.0302734-.0170898-.0229492-.0058594-.0351562-.0058594-.0239258.0019531-.0356445.0058594-.0224609.0097656-.0317383.0166016c-.0097656.0073242-.0180664.0161133-.0249023.0268555s-.0117188.0224609-.0141602.0361328h.2060547Z"/>
    <path d="M12.4135742,10.2132857h.0556641v.050293c.0112305-.0195312.0263672-.0336914.0444336-.0429688s.0375977-.0136719.059082-.0136719c.0180664,0,.034668.0029297.0498047.0092773.015625.0058594.0283203.0146484.0390625.0263672.0102539.0112305.0185547.0253906.0249023.0415039.0058594.0161133.0092773.0341797.0092773.0541992v.2001953h-.0556641v-.1918945c0-.0273438-.0068359-.0488281-.0209961-.0644531-.0141602-.0161133-.0327148-.0239258-.0556641-.0239258-.0126953,0-.0249023.0029297-.0366211.0078125-.0112305.0053711-.0214844.0131836-.0297852.0229492-.0083008.0102539-.0151367.0229492-.0200195.0375977-.0053711.0146484-.0078125.0317383-.0078125.0507812v.1611328h-.0556641v-.3251953Z"/>
  </g>
</svg>
